# xmcd CD database file
#
# Track frame offsets:
#	150
#	20915
#	41070
#	62712
#	90602
#	113592
#	139505
#	163390
#	188817
#
# Disc length: 2874 seconds
#
# Revision: 0
# Processed by: cddbd v1.5.1PL0 Copyright (c) Steve Scherf et al.
# Submitted via: CDex 1.51
#
DISCID=7a0b3809
DTITLE=Various Artist - NRG makeovers Disk2
DYEAR=1900
DGENRE=Rock
TTITLE0=STRONGER
TTITLE1=YELLOW
TTITLE2=DON'T TELL ME
TTITLE3=MY LOVE
TTITLE4=STOP LOVING YOU
TTITLE5=THE SUN ALWAYS SHINES ON TV
TTITLE6=HAPPINESS
TTITLE7=EVERYTIME YOU NEED ME
TTITLE8=ANGEL TONIGHT
EXTD=
EXTT0=
EXTT1=
EXTT2=
EXTT3=
EXTT4=
EXTT5=
EXTT6=
EXTT7=
EXTT8=
PLAYORDER=
